<?xml version="1.0" encoding="UTF-8" standalone="no"?>
<!-- Created with Inkscape (http://www.inkscape.org/) -->

<svg
   width="91.290443"
   height="191.51608"
   viewBox="0 0 91.290443 191.51608"
   version="1.1"
   id="svg1"
   xml:space="preserve"
   xmlns="http://www.w3.org/2000/svg"
   xmlns:svg="http://www.w3.org/2000/svg"><defs
     id="defs1" /><g
     id="layer4"
     style="display:inline"
     transform="translate(-680.65783,-426.01441)"><g
       id="g28"
       style="fill:#ffcc00"><path
         style="fill:#deaa87;fill-opacity:1;stroke-width:10;stroke-linecap:round"
         d="m 707.92826,591.34803 c -3.63674,-7.04812 -28.00857,-97.58061 -27.24186,-114.95613 0.76672,-17.37553 13.4176,-47.22838 24.70599,-49.99996 11.28839,-2.77159 37.35945,10.24451 46.12233,21.78934 8.76288,11.54483 16.96367,33.1658 19.27678,47.41746 2.31311,14.25166 -0.19168,90.87699 -3.38807,97.74639 -3.19639,6.86939 -7.21649,25.68769 -29.62232,24.0895 -22.40582,-1.5982 -26.21611,-19.03848 -29.85285,-26.0866 z"
         id="path17" /><path
         style="fill:#ffcc00;fill-opacity:1;stroke-width:10;stroke-linecap:round"
         d="m 696.73449,553.5508 c -1.91029,-7.31144 -16.8148,-59.78338 -16.04809,-77.1589 0.76672,-17.37553 13.4176,-47.22838 24.70599,-49.99996 11.28839,-2.77159 37.35945,10.24451 46.12233,21.78934 8.76288,11.54483 16.96367,33.1658 19.27678,47.41746 2.31311,14.25166 0.48345,47.7237 0.24171,55.29649 -0.16712,5.23552 -13.31818,-1.42071 -35.77335,-0.83677 -22.81518,0.59331 -36.61507,10.80377 -38.52537,3.49234 z"
         id="path28" /></g></g></svg>
