<?xml version="1.0" encoding="UTF-8" standalone="no"?>
<!-- Created with Inkscape (http://www.inkscape.org/) -->

<svg
   width="65.888329"
   height="169.27626"
   viewBox="0 0 65.888329 169.27626"
   version="1.1"
   id="svg1"
   xml:space="preserve"
   xmlns="http://www.w3.org/2000/svg"
   xmlns:svg="http://www.w3.org/2000/svg"><defs
     id="defs1" /><g
     id="layer4"
     style="display:inline"
     transform="translate(-703.72071,-628.96384)"><g
       id="g8"
       style="display:inline;fill:#deaa87;fill-opacity:1"><path
         style="fill:#deaa87;fill-opacity:1;stroke-width:10;stroke-linecap:round"
         d="m 729.41843,629.05846 c 29.37805,-2.01631 40.19061,28.77789 40.19061,36.40234 0,7.62446 -13.23706,106.23062 -13.9214,112.8632 -0.97523,9.45189 -9.29318,14.74174 -18.45048,18.92451 -9.43212,4.3083 -19.03719,-5.84236 -20.976,-22.3074 -1.93882,-16.46504 -12.08231,-102.7197 -12.28435,-115.44051 -0.20204,-12.72081 -3.93643,-28.42583 25.44162,-30.44214 z"
         id="path7" /><path
         style="fill:#deaa87;fill-opacity:1;stroke-width:10;stroke-linecap:round"
         d="m 729.41843,629.05846 c 29.37805,-2.01631 40.19061,28.77789 40.19061,36.40234 0,7.62446 -1.31309,13.68815 -2.12557,20.30625 -11.1357,4.03769 -51.97245,11.00117 -60.12329,10.75034 -1.7452,-16.48668 -3.18133,-24.29598 -3.38337,-37.01679 -0.20204,-12.72081 -3.93643,-28.42583 25.44162,-30.44214 z"
         id="path8" /></g></g></svg>
