<?xml version="1.0" encoding="UTF-8" standalone="no"?>
<!-- Created with Inkscape (http://www.inkscape.org/) -->

<svg
   width="90.126358"
   height="46.367039"
   viewBox="0 0 90.126358 46.367039"
   version="1.1"
   id="svg1"
   xml:space="preserve"
   xmlns="http://www.w3.org/2000/svg"
   xmlns:svg="http://www.w3.org/2000/svg"><defs
     id="defs1" /><g
     id="layer4"
     style="display:inline"
     transform="translate(-685.2307,-913.65046)"><g
       id="g31"><path
         style="fill:#ffcc00;fill-opacity:1;stroke-width:10;stroke-linecap:round"
         d="m 688.53492,918.45107 c 3.13164,-5.72967 27.3636,-5.37998 32.62832,-3.79085 5.26472,1.58913 27.17915,25.09265 48.95349,30.01474 6.31379,1.42723 6.87458,9.46095 1.94012,13.26217 -4.93447,3.80122 -80.55478,1.492 -84.55933,-0.61519 -4.00456,-2.10718 -2.09424,-33.1412 1.0374,-38.87087 z"
         id="path27" /><path
         style="fill:#d4aa00;fill-opacity:1;stroke-width:10;stroke-linecap:round"
         d="m 685.36163,949.04473 c 11.49939,1.73663 59.174,3.14439 89.96265,2.98982 -0.13447,3.89989 0.19472,5.44994 -2.97406,6.84328 -5.70195,2.5072 -80.75821,0.37072 -84.8527,-1.55589 -2.44666,-1.15125 -1.91417,-2.00213 -2.13589,-8.27721 z"
         id="path31" /></g></g></svg>
