<?xml version="1.0" encoding="UTF-8" standalone="no"?>
<!-- Created with Inkscape (http://www.inkscape.org/) -->

<svg
   width="57.823204"
   height="169.25925"
   viewBox="0 0 57.823204 169.25925"
   version="1.1"
   id="svg1"
   xml:space="preserve"
   xmlns="http://www.w3.org/2000/svg"
   xmlns:svg="http://www.w3.org/2000/svg"><defs
     id="defs1" /><g
     id="layer4"
     style="display:inline"
     transform="translate(-689.10011,-766.96276)"><g
       id="g6"
       style="display:inline;fill:#deaa87;fill-opacity:1"><path
         style="fill:#deaa87;fill-opacity:1;stroke-width:10;stroke-linecap:round"
         d="m 736.29559,770.88734 c 10.64612,6.20335 12.69559,13.68145 8.79267,25.05178 -5.1378,14.96788 -23.8253,112.14829 -24.93781,123.19837 -0.7375,7.32527 -1.32622,16.65673 -12.70268,17.06599 -11.37646,0.40926 -15.81359,-5.98611 -15.74754,-16.70335 0.0661,-10.71724 -4.28042,-94.81938 -1.87277,-105.07685 2.40766,-10.25746 22.9718,-41.05835 28.71961,-44.27546 5.74781,-3.21712 7.10241,-5.46382 17.74852,0.73952 z"
         id="path5" /><path
         style="fill:#deaa87;fill-opacity:1;stroke-width:10;stroke-linecap:round"
         d="m 722.18841,906.29092 c -2.74504,17.58819 0,0 -2.03796,12.84657 -1.15352,7.27137 -1.32622,16.65673 -12.70268,17.06599 -11.37646,0.40926 -15.81359,-5.98611 -15.74754,-16.70335 0.0661,-10.71724 0.0952,2.59774 -0.35526,-12.81587 11.4302,-1.23732 19.66269,-2.39051 30.84344,-0.39334 z"
         id="path6" /></g></g></svg>
