<?xml version="1.0" encoding="UTF-8" standalone="no"?>
<!-- Created with Inkscape (http://www.inkscape.org/) -->

<svg
   width="40.672417"
   height="57.697453"
   viewBox="0 0 40.672417 57.697453"
   version="1.1"
   id="svg1"
   xml:space="preserve"
   xmlns="http://www.w3.org/2000/svg"
   xmlns:svg="http://www.w3.org/2000/svg"><defs
     id="defs1" /><g
     id="layer4"
     style="display:inline"
     transform="translate(-706.44427,-390.50263)"><g
       id="g30"><path
         style="fill:#e9c6af;fill-opacity:1;stroke-width:10;stroke-linecap:round"
         d="m 716.81247,398.97141 c -0.80608,-4.20022 12.92068,-12.17433 21.14996,-6.49905 8.22929,5.67528 10.34294,18.68361 8.57379,24.37443 -1.76915,5.69083 -2.927,17.86768 -4.46562,23.24767 -1.53862,5.37999 -4.11853,11.43085 -19.86737,5.93948 -15.74883,-5.49137 -17.15535,-16.80048 -14.93031,-22.60527 2.22505,-5.80479 10.34563,-20.25703 9.53955,-24.45726 z"
         id="path18" /><path
         style="fill:#deaa87;fill-opacity:1;stroke-width:10;stroke-linecap:round"
         d="m 716.81247,398.97141 c 0.0203,-1.61335 12.92068,-12.17433 21.14996,-6.49905 8.22929,5.67528 9.90454,18.56544 8.57379,24.37443 -1.30989,5.71792 -0.74939,2.91372 -1.81927,8.64556 -9.9037,-7.84044 -16.42147,-12.10099 -30.0828,-18.22367 1.82365,-5.11002 2.15807,-6.68392 2.17832,-8.29727 z"
         id="path30" /></g></g></svg>
