<?xml version="1.0" encoding="UTF-8" standalone="no"?>
<!-- Created with Inkscape (http://www.inkscape.org/) -->

<svg
   width="71.429741"
   height="84.721008"
   viewBox="0 0 71.429741 84.721008"
   version="1.1"
   id="svg1"
   xml:space="preserve"
   xmlns="http://www.w3.org/2000/svg"
   xmlns:svg="http://www.w3.org/2000/svg"><defs
     id="defs1" /><g
     id="layer4"
     style="display:inline"
     transform="translate(-702.97371,-334.84941)"><g
       id="g21"><path
         style="fill:#e9c6af;fill-opacity:1;stroke-width:10;stroke-linecap:round"
         d="m 735.9485,334.85054 c 23.24637,-0.15412 31.23861,15.47537 31.66215,33.1399 0.25147,10.48828 -2.31367,6.00756 -2.0596,9.36317 0.19017,2.51165 8.44786,9.10646 8.83899,10.84972 0.39113,1.74325 -7.90603,1.9552 -7.75365,3.66146 0.14673,1.64284 3.72222,-1.21842 3.80623,2.37097 -1.67684,0.28584 -2.94488,1.59534 -2.9603,3.63863 -0.0214,2.83208 0.0722,7.87656 -0.0871,11.78639 -0.13899,3.41168 1.23484,3.78417 3.143,4.5755 -0.19808,4.79397 -18.06401,8.49216 -26.78652,1.31797 -6.39149,-5.25695 -19.2185,-11.46842 -27.35194,-16.52851 -7.1826,-4.46853 -13.11065,-19.19907 -13.4176,-29.65598 -0.30694,-10.45692 7.69051,-34.41043 32.96636,-34.51922 z"
         id="path19" /><path
         style="fill:#deaa87;fill-opacity:1;stroke-width:10;stroke-linecap:round"
         d="m 720.5815,377.34578 c 3.03819,0.1165 3.24045,4.97371 3.33787,10.11339 0.0724,3.82169 1.43963,5.89271 4.21359,5.32033 2.77395,-0.57237 2.83897,-1.71254 2.83897,-1.71254 0,0 -0.58528,3.72077 -3.27398,4.16185 -2.44238,0.40066 -5.49345,-1.44281 -5.61212,-3.77894 -0.13217,-2.60181 -0.55116,-5.64344 -0.76314,-8.33939 -0.22925,-2.91561 -0.55736,-4.16489 -0.74119,-5.7647 z"
         id="path20" /><path
         style="display:inline;fill:#d7eef4;fill-opacity:1;stroke-width:23.9138;stroke-linecap:round"
         d="m 763.22395,374.50118 c 0.53511,1.01497 -10e-4,4.73961 -0.55399,5.61192 -0.55155,0.87233 -10.10364,-1.41177 -9.96635,-2.87032 0.13726,-1.45853 9.98522,-3.7566 10.52034,-2.7416 z"
         id="path1" /><path
         style="display:inline;fill:#6c5d53;fill-opacity:1;stroke-width:11.8266;stroke-linecap:round"
         d="m 753.40165,369.8352 c 0,0 11.94145,2.06339 12.5914,3.07363 0.64996,1.01024 -0.0287,2.32852 -0.74142,2.5073 -0.7127,0.17877 -12.3057,-1.86898 -12.53755,-2.53212 -0.23184,-0.66313 -0.36266,-2.7832 0.68757,-3.04881 z"
         id="path21" /></g></g></svg>
