<?xml version="1.0" encoding="UTF-8" standalone="no"?>
<!-- Created with Inkscape (http://www.inkscape.org/) -->

<svg
   width="101.04248"
   height="625.16809"
   viewBox="0 0 101.04248 625.16809"
   version="1.1"
   id="svg1"
   xml:space="preserve"
   xmlns="http://www.w3.org/2000/svg"
   xmlns:svg="http://www.w3.org/2000/svg"><defs
     id="defs1" /><g
     id="layer4"
     style="display:inline"
     transform="translate(-680.65784,-334.8494)"><path
       style="fill:#e9c6af;fill-opacity:1;stroke-width:10;stroke-linecap:round"
       d="m 736.29559,770.88734 c 10.64612,6.20335 12.69559,13.68145 8.79267,25.05178 -5.1378,14.96788 -23.8253,112.14829 -24.93781,123.19837 -0.7375,7.32527 -1.32622,16.65673 -12.70268,17.06599 -11.37646,0.40926 -15.81359,-5.98611 -15.74754,-16.70335 0.0661,-10.71724 -4.28042,-94.81938 -1.87277,-105.07685 2.40766,-10.25746 22.9718,-41.05835 28.71961,-44.27546 5.74781,-3.21712 7.10241,-5.46382 17.74852,0.73952 z"
       id="path26" /><path
       style="fill:#deaa87;fill-opacity:1;stroke-width:10;stroke-linecap:round"
       d="m 722.18841,906.29092 c -2.74504,17.58819 0,0 -2.03796,12.84657 -1.15352,7.27137 -1.32622,16.65673 -12.70268,17.06599 -11.37646,0.40926 -15.81359,-5.98611 -15.74754,-16.70335 0.0661,-10.71724 0.0952,2.59774 -0.35526,-12.81587 11.4302,-1.23732 19.66269,-2.39051 30.84344,-0.39334 z"
       id="path35" /><g
       id="g29"><path
         style="fill:#e9c6af;fill-opacity:1;stroke-width:10;stroke-linecap:round"
         d="m 729.41843,629.05846 c 29.37805,-2.01631 40.19061,28.77789 40.19061,36.40234 0,7.62446 -13.23706,106.23062 -13.9214,112.8632 -0.97523,9.45189 -9.29318,14.74174 -18.45048,18.92451 -9.43212,4.3083 -19.03719,-5.84236 -20.976,-22.3074 -1.93882,-16.46504 -12.08231,-102.7197 -12.28435,-115.44051 -0.20204,-12.72081 -3.93643,-28.42583 25.44162,-30.44214 z"
         id="path25" /><path
         style="fill:#deaa87;fill-opacity:1;stroke-width:10;stroke-linecap:round"
         d="m 729.41843,629.05846 c 29.37805,-2.01631 40.19061,28.77789 40.19061,36.40234 0,7.62446 -1.31309,13.68815 -2.12557,20.30625 -11.1357,4.03769 -51.97245,11.00117 -60.12329,10.75034 -1.7452,-16.48668 -3.18133,-24.29598 -3.38337,-37.01679 -0.20204,-12.72081 -3.93643,-28.42583 25.44162,-30.44214 z"
         id="path29" /></g><g
       id="g30"><path
         style="fill:#e9c6af;fill-opacity:1;stroke-width:10;stroke-linecap:round"
         d="m 716.81247,398.97141 c -0.80608,-4.20022 12.92068,-12.17433 21.14996,-6.49905 8.22929,5.67528 10.34294,18.68361 8.57379,24.37443 -1.76915,5.69083 -2.927,17.86768 -4.46562,23.24767 -1.53862,5.37999 -4.11853,11.43085 -19.86737,5.93948 -15.74883,-5.49137 -17.15535,-16.80048 -14.93031,-22.60527 2.22505,-5.80479 10.34563,-20.25703 9.53955,-24.45726 z"
         id="path18" /><path
         style="fill:#deaa87;fill-opacity:1;stroke-width:10;stroke-linecap:round"
         d="m 716.81247,398.97141 c 0.0203,-1.61335 12.92068,-12.17433 21.14996,-6.49905 8.22929,5.67528 9.90454,18.56544 8.57379,24.37443 -1.30989,5.71792 -0.74939,2.91372 -1.81927,8.64556 -9.9037,-7.84044 -16.42147,-12.10099 -30.0828,-18.22367 1.82365,-5.11002 2.15807,-6.68392 2.17832,-8.29727 z"
         id="path30" /></g><g
       id="g28"
       style="fill:#ffcc00"><path
         style="fill:#deaa87;fill-opacity:1;stroke-width:10;stroke-linecap:round"
         d="m 707.92826,591.34803 c -3.63674,-7.04812 -28.00857,-97.58061 -27.24186,-114.95613 0.76672,-17.37553 13.4176,-47.22838 24.70599,-49.99996 11.28839,-2.77159 37.35945,10.24451 46.12233,21.78934 8.76288,11.54483 16.96367,33.1658 19.27678,47.41746 2.31311,14.25166 -0.19168,90.87699 -3.38807,97.74639 -3.19639,6.86939 -7.21649,25.68769 -29.62232,24.0895 -22.40582,-1.5982 -26.21611,-19.03848 -29.85285,-26.0866 z"
         id="path17" /><path
         style="fill:#ffcc00;fill-opacity:1;stroke-width:10;stroke-linecap:round"
         d="m 696.73449,553.5508 c -1.91029,-7.31144 -16.8148,-59.78338 -16.04809,-77.1589 0.76672,-17.37553 13.4176,-47.22838 24.70599,-49.99996 11.28839,-2.77159 37.35945,10.24451 46.12233,21.78934 8.76288,11.54483 16.96367,33.1658 19.27678,47.41746 2.31311,14.25166 0.48345,47.7237 0.24171,55.29649 -0.16712,5.23552 -13.31818,-1.42071 -35.77335,-0.83677 -22.81518,0.59331 -36.61507,10.80377 -38.52537,3.49234 z"
         id="path28" /></g><path
       style="fill:#4400aa;fill-opacity:1;stroke-width:10;stroke-linecap:round"
       d="m 696.92999,587.55329 c 10.65995,-11.45152 66.62744,-2.86031 76.28082,2.01264 9.65338,4.87295 10.44488,62.51776 5.53022,69.05915 -4.91466,6.54139 -78.73411,25.47712 -90.57652,16.13738 -11.84241,-9.33974 -1.89447,-75.75765 8.76548,-87.20917 z"
       id="path16" /><g
       id="g21"><path
         style="fill:#e9c6af;fill-opacity:1;stroke-width:10;stroke-linecap:round"
         d="m 735.9485,334.85054 c 23.24637,-0.15412 31.23861,15.47537 31.66215,33.1399 0.25147,10.48828 -2.31367,6.00756 -2.0596,9.36317 0.19017,2.51165 8.44786,9.10646 8.83899,10.84972 0.39113,1.74325 -7.90603,1.9552 -7.75365,3.66146 0.14673,1.64284 3.72222,-1.21842 3.80623,2.37097 -1.67684,0.28584 -2.94488,1.59534 -2.9603,3.63863 -0.0214,2.83208 0.0722,7.87656 -0.0871,11.78639 -0.13899,3.41168 1.23484,3.78417 3.143,4.5755 -0.19808,4.79397 -18.06401,8.49216 -26.78652,1.31797 -6.39149,-5.25695 -19.2185,-11.46842 -27.35194,-16.52851 -7.1826,-4.46853 -13.11065,-19.19907 -13.4176,-29.65598 -0.30694,-10.45692 7.69051,-34.41043 32.96636,-34.51922 z"
         id="path19" /><path
         style="fill:#deaa87;fill-opacity:1;stroke-width:10;stroke-linecap:round"
         d="m 720.5815,377.34578 c 3.03819,0.1165 3.24045,4.97371 3.33787,10.11339 0.0724,3.82169 1.43963,5.89271 4.21359,5.32033 2.77395,-0.57237 2.83897,-1.71254 2.83897,-1.71254 0,0 -0.58528,3.72077 -3.27398,4.16185 -2.44238,0.40066 -5.49345,-1.44281 -5.61212,-3.77894 -0.13217,-2.60181 -0.55116,-5.64344 -0.76314,-8.33939 -0.22925,-2.91561 -0.55736,-4.16489 -0.74119,-5.7647 z"
         id="path20" /><path
         style="fill:#28170b;fill-opacity:1;stroke-width:10;stroke-linecap:round"
         d="m 753.49443,367.61323 c 0,0 9.60375,1.83432 10.12647,2.73241 0.52272,0.89809 -0.0231,2.07002 -0.59628,2.22895 -0.57318,0.15893 -9.8967,-1.66149 -10.08316,-2.25101 -0.18646,-0.58952 -0.29167,-2.47423 0.55297,-2.71035 z"
         id="path21" /></g><path
       style="display:inline;fill:#e9c6af;fill-opacity:1;stroke-width:10;stroke-linecap:round"
       d="m 688.57766,552.29843 c 1.82743,11.98129 6.57928,12.25586 15.52219,11.72226 8.9429,-0.53359 15.12846,-3.93461 17.79126,-18.21736 2.66279,-14.28274 18.68749,-76.74708 19.57596,-84.98543 0.88846,-8.23835 -3.65487,-26.05681 -19.20685,-26.93361 -15.55197,-0.87681 -25.17871,6.84219 -28.07463,21.29848 -2.89592,14.4563 -5.60145,92.00765 -5.60793,97.11566 z"
       id="path22" /><path
       style="display:inline;fill:#e9c6af;fill-opacity:1;stroke-width:10;stroke-linecap:round"
       d="m 703.82269,540.21742 c 13.62352,-2.44263 20.17949,1.26405 22.30092,7.25793 2.12143,5.99388 15.60119,80.51462 15.60119,87.71298 0,7.19836 -0.23701,10.19401 -8.02466,11.41402 -7.78764,1.22002 -8.56472,-2.78583 -10.26782,-9.68113 -1.7031,-6.89529 -30.74131,-71.51344 -31.52876,-78.59264 -0.78744,-7.07921 2.80268,-15.97678 11.91913,-18.11116 z"
       id="path23" /><path
       style="display:inline;fill:#e9c6af;fill-opacity:1;stroke-width:10;stroke-linecap:round"
       d="m 731.44272,635.82035 c 16.85229,-3.82064 25.16167,27.37017 24.8627,31.64403 -0.86515,12.36724 -27.51772,18.25881 -32.29418,8.84059 -2.73012,-5.38324 -5.36315,-37.72728 7.43148,-40.48462 z"
       id="path24" /><g
       id="g31"><path
         style="fill:#ffcc00;fill-opacity:1;stroke-width:10;stroke-linecap:round"
         d="m 688.53492,918.45107 c 3.13164,-5.72967 27.3636,-5.37998 32.62832,-3.79085 5.26472,1.58913 27.17915,25.09265 48.95349,30.01474 6.31379,1.42723 6.87458,9.46095 1.94012,13.26217 -4.93447,3.80122 -80.55478,1.492 -84.55933,-0.61519 -4.00456,-2.10718 -2.09424,-33.1412 1.0374,-38.87087 z"
         id="path27" /><path
         style="fill:#d4aa00;fill-opacity:1;stroke-width:10;stroke-linecap:round"
         d="m 685.36163,949.04473 c 11.49939,1.73663 59.174,3.14439 89.96265,2.98982 -0.13447,3.89989 0.19472,5.44994 -2.97406,6.84328 -5.70195,2.5072 -80.75821,0.37072 -84.8527,-1.55589 -2.44666,-1.15125 -1.91417,-2.00213 -2.13589,-8.27721 z"
         id="path31" /></g></g></svg>
