<?xml version="1.0" encoding="UTF-8" standalone="no"?>
<!-- Created with Inkscape (http://www.inkscape.org/) -->

<svg
   width="213.08809"
   height="67.512321"
   viewBox="0 0 213.08809 67.512321"
   version="1.1"
   id="svg1"
   xml:space="preserve"
   xmlns="http://www.w3.org/2000/svg"
   xmlns:svg="http://www.w3.org/2000/svg"><defs
     id="defs1" /><g
     id="layer1"
     style="display:inline"
     transform="translate(-35.327742,-87.359035)"><g
       id="g33-5-9"
       transform="matrix(0,1.5597852,-1.7797808,0,1216.6974,-1284.9631)"
       style="display:inline;fill:#ffffff;fill-opacity:1"><path
         id="path33-3-3"
         style="fill:#ffffff;fill-opacity:1;stroke-width:10;stroke-linecap:round"
         d="m 894.53024,558.08168 c 0,0 10.59496,0.0846 15.02688,-0.0485 3.52008,4.42409 13.54079,16.36666 13.54079,22.87579 v 71.11425 c 0,6.50914 -5.2402,11.74934 -11.74934,11.74934 h -19.78441 c -6.50913,0 -11.74934,-5.2402 -11.74934,-11.74934 v -71.11425 c 0,-6.50913 9.9495,-18.03902 14.71542,-22.82733 z" /><path
         id="rect31-5-7"
         style="fill:#ffffff;fill-opacity:1;stroke-width:10;stroke-linecap:round"
         d="m 894.53024,552.96583 c 0,0 10.59496,0.0846 15.02688,-0.0485 3.52008,4.42409 13.54079,16.36666 13.54079,22.87579 v 71.11425 c 0,6.50914 -5.2402,11.74934 -11.74934,11.74934 h -19.78441 c -6.50913,0 -11.74934,-5.2402 -11.74934,-11.74934 v -71.11425 c 0,-6.50913 9.9495,-18.03902 14.71542,-22.82733 z" /><rect
         style="fill:#ffffff;fill-opacity:1;stroke-width:10;stroke-linecap:round"
         id="rect32-6-4"
         width="24.834208"
         height="13.617747"
         x="889.3877"
         y="544.04541"
         ry="4.2999105" /></g></g></svg>
