<?xml version="1.0" encoding="UTF-8" standalone="no"?>
<!-- Created with Inkscape (http://www.inkscape.org/) -->

<svg
   width="45.211548"
   height="122.9093"
   viewBox="0 0 45.211548 122.9093"
   version="1.1"
   id="svg1"
   xml:space="preserve"
   xmlns="http://www.w3.org/2000/svg"
   xmlns:svg="http://www.w3.org/2000/svg"><defs
     id="defs1" /><g
     id="layer3"
     style="display:inline"
     transform="translate(-999.11707,-687.61176)"><g
       id="g41"
       transform="matrix(0.82947956,0,0,0.82947956,273.98337,236.33718)"><path
         id="path40"
         style="fill:#6f916f;stroke-width:9.92951;stroke-linecap:round"
         d="m 892.73445,609.4718 c 0,0 13.342,0.0662 18.92301,-0.0379 4.43276,3.46381 17.05162,12.81417 17.05162,17.91046 v 55.67844 c 0,5.09628 -6.59887,9.19907 -14.79568,9.19907 h -24.91407 c -8.1968,0 -14.79568,-4.10279 -14.79568,-9.19907 v -55.67844 c 0,-5.09629 12.52919,-14.12354 18.5308,-17.87252 z" /><path
         id="path41"
         style="fill:#93ac93;stroke-width:12.5796;stroke-linecap:round"
         d="m 892.22531,553.48039 c 8.4154,-0.5041 13.85114,-0.3958 19.43215,-0.56311 1.99149,7.57293 17.05162,49.64825 17.05162,57.82784 v 60.28324 c 0,8.1796 -6.59887,14.76462 -14.79568,14.76462 h -24.91407 c -8.1968,0 -14.79568,-6.58502 -14.79568,-14.76462 0,0 0.24547,-40.19033 0,-60.28324 -0.0933,-7.63903 15.81394,-49.68802 18.02166,-57.26473 z" /><rect
         style="fill:#6f916f;fill-opacity:1;stroke-width:10;stroke-linecap:round"
         id="rect41"
         width="24.834208"
         height="13.617747"
         x="889.3877"
         y="544.04541"
         ry="4.2999105" /><rect
         style="display:inline;fill:#ffcc00;fill-opacity:1;stroke-width:13.2056;stroke-linecap:round"
         id="rect42"
         width="33.465107"
         height="57.503868"
         x="884.19257"
         y="613.22449" /></g></g></svg>
