<?xml version="1.0" encoding="UTF-8" standalone="no"?>
<!-- Created with Inkscape (http://www.inkscape.org/) -->

<svg
   width="45.211121"
   height="122.9093"
   viewBox="0 0 45.211121 122.9093"
   version="1.1"
   id="svg1"
   xml:space="preserve"
   xmlns="http://www.w3.org/2000/svg"
   xmlns:svg="http://www.w3.org/2000/svg"><defs
     id="defs1" /><g
     id="layer3"
     style="display:inline"
     transform="translate(-929.5766,-687.61176)"><g
       id="g33"
       transform="matrix(0.82947956,0,0,0.82947956,204.44252,236.33718)"><path
         id="path33"
         style="fill:#93a7ac;stroke-width:12.5796;stroke-linecap:round"
         d="m 892.73445,559.40703 c 0,0 13.342,0.10631 18.92301,-0.0609 4.43276,5.55946 17.05162,20.5669 17.05162,28.7465 v 89.36458 c 0,8.1796 -6.59887,14.76462 -14.79568,14.76462 h -24.91407 c -8.1968,0 -14.79568,-6.58502 -14.79568,-14.76462 v -89.36458 c 0,-8.1796 12.52919,-22.66845 18.5308,-28.6856 z" /><path
         id="rect31"
         style="fill:#d7eef4;stroke-width:12.5796;stroke-linecap:round"
         d="m 892.73445,552.97828 c 0,0 13.342,0.10631 18.92301,-0.061 4.43276,5.55946 17.05162,20.5669 17.05162,28.74649 v 89.36459 c 0,8.1796 -6.59887,14.76462 -14.79568,14.76462 h -24.91407 c -8.1968,0 -14.79568,-6.58502 -14.79568,-14.76462 v -89.36459 c 0,-8.17959 12.52919,-22.66844 18.5308,-28.68559 z" /><rect
         style="fill:#93a7ac;fill-opacity:1;stroke-width:10;stroke-linecap:round"
         id="rect32"
         width="24.834208"
         height="13.617747"
         x="889.3877"
         y="544.04541"
         ry="4.2999105" /></g></g></svg>
