<?xml version="1.0" encoding="UTF-8" standalone="no"?>
<!-- Created with Inkscape (http://www.inkscape.org/) -->

<svg
   width="100.54449"
   height="88.58551"
   viewBox="0 0 100.54449 88.58551"
   version="1.1"
   id="svg1"
   xml:space="preserve"
   xmlns="http://www.w3.org/2000/svg"
   xmlns:svg="http://www.w3.org/2000/svg"><defs
     id="defs1" /><g
     id="layer3"
     style="display:inline"
     transform="translate(-900.17676,-564.1701)"><g
       id="g34"
       transform="translate(-3.5043641,-39.248715)"><path
         id="ellipse34"
         style="display:inline;fill:#d7eef4;fill-opacity:1;stroke-width:10;stroke-linecap:round"
         d="m 946.0018,687.61173 c -4.54851,0 -3.83037,4.39259 -3.83037,4.39259 -27.7646,10e-6 -38.49032,-19.33288 -38.49032,-37.01055 10e-6,-17.67767 22.50766,-32.00824 50.27226,-32.00824 27.76459,10e-6 50.27223,14.33058 50.27223,32.00824 0,17.67766 -13.69011,36.94458 -41.4547,36.94458 0,0 0.3923,-4.32662 -3.96154,-4.32662" /><ellipse
         style="display:inline;fill:#93a7ac;fill-opacity:1;stroke-width:6.03451;stroke-linecap:round"
         id="path32"
         cx="953.95337"
         cy="654.18365"
         rx="35.359238"
         ry="16.571697" /><path
         id="path34"
         style="fill:#afdde9;stroke-width:6.6719;stroke-linecap:round"
         d="m 953.95337,603.41883 c 0,0 11.45493,16.81164 15.59818,25.30726 4.14325,8.49561 8.84753,27.58931 8.84753,27.58931 0,0 -16.15097,4.65104 -24.44571,4.65104 -8.29474,0 -24.44571,-4.65105 -24.44571,-4.65105 0,0 4.70428,-19.0937 8.84753,-27.5893 4.14325,-8.49561 15.59818,-25.30726 15.59818,-25.30726 z" /></g></g></svg>
